<svg width="86" height="87" viewBox="0 0 86 87" fill="none" xmlns="http://www.w3.org/2000/svg">
<path d="M85.9326 33.9225C84.1528 26.0375 80.2113 18.8044 74.55 13.0345C68.8888 7.26468 61.7319 3.18637 53.8821 1.25712C46.0324 -0.672136 37.8004 -0.376014 30.1095 2.11226C22.4187 4.60054 15.5733 9.18254 10.3412 15.3442C5.10922 21.5059 1.69755 29.0036 0.488967 36.9961C-0.71962 44.9886 0.322688 53.1597 3.49896 60.5929C6.67523 68.026 11.8598 74.4272 18.4711 79.0781C25.0824 83.7291 32.8588 86.446 40.928 86.9239L41.3829 79.2442C34.7408 78.8507 28.3396 76.6144 22.8976 72.786C17.4556 68.9575 13.1879 63.6885 10.5734 57.5699C7.95882 51.4514 7.10085 44.7253 8.09569 38.1463C9.09053 31.5674 11.8988 25.3957 16.2055 20.3237C20.5123 15.2518 26.147 11.4801 32.4777 9.4319C38.8084 7.38369 45.5845 7.13994 52.046 8.72799C58.5075 10.316 64.3987 13.6731 69.0587 18.4225C73.7187 23.1719 76.9632 29.1259 78.4281 35.6163L85.9326 33.9225Z" fill="url(#paint0_linear_1_3)"/>
<defs>
<linearGradient id="paint0_linear_1_3" x1="43" y1="43" x2="43.5" y2="87" gradientUnits="userSpaceOnUse">
<stop stop-color="white"/>
<stop offset="1" stop-opacity="0"/>
</linearGradient>
</defs>
</svg>
